<svg width="16" height="16" viewBox="0 0 16 16" fill="none" xmlns="http://www.w3.org/2000/svg">
<path d="M13.6302 0.44104C13.1995 0.440843 12.7804 0.589654 12.4359 0.865106C12.0914 1.14056 11.84 1.52777 11.7197 1.96854C11.5993 2.40931 11.6164 2.87982 11.7683 3.30936C11.9203 3.7389 12.199 4.10425 12.5624 4.35051L11.264 9.1947C11.2239 9.19211 11.1836 9.19039 11.1429 9.19039C10.7149 9.18989 10.2983 9.33732 9.9555 9.61056L7.55674 7.47973C7.6703 7.12056 7.6915 6.73551 7.61814 6.36465C7.54478 5.99378 7.37953 5.65065 7.13958 5.37094C6.89964 5.09123 6.59376 4.88517 6.25378 4.77419C5.9138 4.66321 5.55213 4.65137 5.20641 4.7399C4.86068 4.82842 4.54351 5.01409 4.28792 5.27757C4.03232 5.54105 3.84763 5.87273 3.75305 6.23809C3.65847 6.60346 3.65746 6.98917 3.75013 7.35509C3.8428 7.72101 4.02576 8.05378 4.27998 8.31877L2.87183 11.321C2.81067 11.3149 2.74889 11.3114 2.68631 11.3114C2.20962 11.3108 1.74851 11.4924 1.38668 11.8232C1.02485 12.154 0.786275 12.6121 0.714271 13.1144C0.642267 13.6167 0.741601 14.1299 0.994243 14.5608C1.24688 14.9917 1.63609 15.3118 2.09121 15.4629C2.54633 15.614 3.03719 15.5862 3.47471 15.3845C3.91222 15.1827 4.26739 14.8205 4.47573 14.3634C4.68407 13.9064 4.73179 13.3849 4.61021 12.8936C4.48864 12.4022 4.20583 11.9737 3.81312 11.6856L5.1438 8.84907C5.46704 8.94412 5.8076 8.95034 6.13371 8.86714C6.45981 8.78394 6.76083 8.61404 7.00867 8.37329L9.33114 10.4364C9.17342 10.8069 9.11899 11.2179 9.17433 11.6204C9.22967 12.023 9.39244 12.4 9.64324 12.7067C9.89404 13.0134 10.2223 13.2367 10.5888 13.35C10.9554 13.4633 11.3448 13.4619 11.7106 13.3459C12.0764 13.2298 12.4032 13.0041 12.652 12.6956C12.9008 12.3871 13.0611 12.0088 13.1138 11.6059C13.1665 11.203 13.1094 10.7924 12.9493 10.4231C12.7892 10.0538 12.5328 9.74133 12.2108 9.52303L13.5091 4.67884C13.5492 4.68143 13.5895 4.68315 13.6302 4.68315C14.1579 4.68315 14.664 4.45968 15.0372 4.06191C15.4103 3.66413 15.62 3.12463 15.62 2.56209C15.62 1.99956 15.4103 1.46006 15.0372 1.06228C14.664 0.664508 14.1579 0.44104 13.6302 0.44104ZM2.68631 14.493C2.48954 14.493 2.29718 14.4308 2.13357 14.3143C1.96996 14.1978 1.84244 14.0321 1.76714 13.8383C1.69184 13.6446 1.67214 13.4313 1.71053 13.2256C1.74892 13.0199 1.84367 12.8309 1.98281 12.6826C2.12195 12.5343 2.29922 12.4333 2.49221 12.3924C2.6852 12.3514 2.88525 12.3724 3.06704 12.4527C3.24883 12.533 3.40421 12.6689 3.51354 12.8433C3.62286 13.0177 3.68121 13.2227 3.68121 13.4325C3.68091 13.7137 3.57599 13.9832 3.38948 14.1821C3.20296 14.3809 2.95008 14.4927 2.68631 14.493ZM5.671 7.86473C5.47423 7.86473 5.28188 7.80253 5.11827 7.686C4.95466 7.56947 4.82714 7.40384 4.75183 7.21005C4.67653 7.01626 4.65683 6.80303 4.69522 6.59731C4.73361 6.39158 4.82836 6.20262 4.9675 6.0543C5.10664 5.90598 5.28391 5.80498 5.47691 5.76405C5.6699 5.72313 5.86994 5.74414 6.05173 5.8244C6.23352 5.90467 6.38891 6.0406 6.49823 6.21501C6.60755 6.38941 6.6659 6.59445 6.6659 6.8042C6.6656 7.08538 6.56069 7.35494 6.37417 7.55376C6.18766 7.75258 5.93477 7.86442 5.671 7.86473ZM11.1429 12.372C10.9462 12.372 10.7538 12.3098 10.5902 12.1932C10.4266 12.0767 10.2991 11.9111 10.2238 11.7173C10.1485 11.5235 10.1288 11.3103 10.1672 11.1045C10.2055 10.8988 10.3003 10.7099 10.4394 10.5615C10.5786 10.4132 10.7559 10.3122 10.9488 10.2713C11.1418 10.2304 11.3419 10.2514 11.5237 10.3316C11.7055 10.4119 11.8608 10.5478 11.9702 10.7222C12.0795 10.8967 12.1378 11.1017 12.1378 11.3114C12.1375 11.5926 12.0326 11.8622 11.8461 12.061C11.6596 12.2598 11.4067 12.3717 11.1429 12.372ZM13.6302 3.62262C13.4334 3.62262 13.2411 3.56042 13.0774 3.44389C12.9138 3.32736 12.7863 3.16173 12.711 2.96794C12.6357 2.77416 12.616 2.56092 12.6544 2.3552C12.6928 2.14947 12.7875 1.96051 12.9267 1.81219C13.0658 1.66387 13.2431 1.56287 13.4361 1.52195C13.6291 1.48102 13.8291 1.50203 14.0109 1.5823C14.1927 1.66256 14.3481 1.79849 14.4574 1.9729C14.5667 2.1473 14.6251 2.35234 14.6251 2.56209C14.6248 2.84327 14.5199 3.11283 14.3334 3.31165C14.1468 3.51047 13.894 3.62231 13.6302 3.62262Z" fill="#ED62B1"/>
</svg>
