<svg width="15" height="15" viewBox="0 0 15 15" fill="none" xmlns="http://www.w3.org/2000/svg">
<path d="M7.14612 0.39624C5.81329 0.396965 4.51997 0.790998 3.41559 1.51584C2.97462 1.80525 2.30798 1.51506 2.30798 0.987595V0.856331C2.30798 0.60223 2.10199 0.39624 1.84789 0.39624C1.59379 0.39624 1.3878 0.60223 1.3878 0.856331V2.3107C1.3878 3.32711 2.21176 4.15106 3.22816 4.15106H4.59917C4.85839 4.15106 5.06852 3.94093 5.06852 3.68171C5.06852 3.42249 4.85839 3.21236 4.59917 3.21236H4.39405C3.80308 3.21236 3.53538 2.53827 4.03726 2.22625C4.28187 2.07418 4.53744 1.93988 4.80213 1.82464C5.54316 1.50202 6.34043 1.33546 7.14612 1.33495C10.4401 1.33495 13.1201 4.06893 13.1201 7.4292C13.1201 10.7895 10.4401 13.5235 7.14612 13.5235C4.00387 13.5235 1.42031 11.0355 1.18899 7.88932C1.17036 7.6359 0.966144 7.4292 0.712043 7.4292C0.457942 7.4292 0.250415 7.63542 0.266699 7.889C0.345635 9.11826 0.740006 10.3078 1.41383 11.3365C2.17137 12.4931 3.24809 13.3945 4.50783 13.9268C5.76758 14.4591 7.15377 14.5984 8.49111 14.327C9.82844 14.0557 11.0569 13.3858 12.021 12.4023C12.9852 11.4187 13.6418 10.1655 13.9078 8.80127C14.1738 7.437 14.0373 6.02291 13.5155 4.7378C12.9937 3.4527 12.1101 2.3543 10.9763 1.58151C9.84258 0.808713 8.50966 0.396239 7.14612 0.39624Z" fill="#ED62B1"/>
<path d="M7.14156 3.21274C6.88743 3.21195 6.68079 3.41733 6.68003 3.67146L6.67153 6.52483C6.66849 7.5461 7.49554 8.37562 8.51682 8.37562H9.89277C10.152 8.37562 10.3621 8.16549 10.3621 7.90627C10.3621 7.64705 10.152 7.43692 9.89277 7.43692H8.97763C8.21139 7.43692 7.59087 6.81455 7.59315 6.04831L7.60021 3.6742C7.60097 3.42013 7.39563 3.21354 7.14156 3.21274Z" fill="#ED62B1"/>
</svg>
